<svg xmlns="http://www.w3.org/2000/svg" x="0px" y="0px"
width="48" height="48"
viewBox="0 0 172 172"
style=" fill:#000000;"><defs><linearGradient x1="20.54683" y1="89.14258" x2="20.54683" y2="25.08333" gradientUnits="userSpaceOnUse" id="color-1_bpb1NWfrmmHv_gr1"><stop offset="0" stop-color="#92a3b0"></stop><stop offset="0.015" stop-color="#a3b5c4"></stop><stop offset="0.032" stop-color="#aec2d1"></stop><stop offset="0.046" stop-color="#b2c6d6"></stop></linearGradient><linearGradient x1="91.375" y1="139.75" x2="91.375" y2="111.08333" gradientUnits="userSpaceOnUse" id="color-2_bpb1NWfrmmHv_gr2"><stop offset="0" stop-color="#92a3b0"></stop><stop offset="0.015" stop-color="#a3b5c4"></stop><stop offset="0.032" stop-color="#aec2d1"></stop><stop offset="0.046" stop-color="#b2c6d6"></stop></linearGradient><linearGradient x1="2.709" y1="24.209" x2="12.126" y2="33.626" gradientUnits="userSpaceOnUse" id="color-3_bpb1NWfrmmHv_gr3"><stop offset="0" stop-color="#199ae0"></stop><stop offset="1" stop-color="#0782d8"></stop></linearGradient><linearGradient x1="24.26992" y1="87.89917" x2="158.89217" y2="87.89917" gradientUnits="userSpaceOnUse" id="color-4_bpb1NWfrmmHv_gr4"><stop offset="0" stop-color="#3079d6"></stop><stop offset="1" stop-color="#297cd2"></stop></linearGradient><linearGradient x1="21.5" y1="55.45208" x2="160.65517" y2="55.45208" gradientUnits="userSpaceOnUse" id="color-5_bpb1NWfrmmHv_gr5"><stop offset="0" stop-color="#42a3f2"></stop><stop offset="1" stop-color="#42a4eb"></stop></linearGradient><linearGradient x1="99.00392" y1="108.22383" x2="82.57075" y2="31.61933" gradientUnits="userSpaceOnUse" id="color-6_bpb1NWfrmmHv_gr6"><stop offset="0" stop-color="#e74c3c"></stop><stop offset="1" stop-color="#f9b70c"></stop></linearGradient></defs><g fill="none" fill-rule="nonzero" stroke="none" stroke-width="1" stroke-linecap="butt" stroke-linejoin="miter" stroke-miterlimit="10" stroke-dasharray="" stroke-dashoffset="0" font-family="none" font-weight="none" font-size="none" text-anchor="none" style="mix-blend-mode: normal"><path d="M0,172v-172h172v172z" fill="none"></path><g><path d="M33.91983,89.14258c-1.66625,0 -3.15692,-1.16817 -3.50808,-2.8595l-9.94375,-48.3105c-0.68442,-3.31817 -3.6335,-5.72258 -7.01975,-5.72258h-6.28158c-1.978,0 -3.58333,-1.60533 -3.58333,-3.58333c0,-1.978 1.60533,-3.58333 3.58333,-3.58333h6.28158c6.76892,0 12.67425,4.81242 14.0395,11.44158l9.94375,48.3105c0.39775,1.93858 -0.84925,3.83417 -2.78783,4.23192c-0.24008,0.05375 -0.48375,0.07525 -0.72383,0.07525z" fill="url(#color-1_bpb1NWfrmmHv_gr1)"></path><circle cx="37" cy="41" transform="scale(3.58333,3.58333)" r="3" fill="#5c5f61"></circle><circle cx="37" cy="41" transform="scale(3.58333,3.58333)" r="1" fill="#000000" opacity="0.15"></circle><circle cx="15" cy="41" transform="scale(3.58333,3.58333)" r="3" fill="#5c5f61"></circle><circle cx="15" cy="41" transform="scale(3.58333,3.58333)" r="1" fill="#000000" opacity="0.15"></circle><path d="M146.91667,139.75h-100.33333c-7.90483,0 -14.33333,-6.4285 -14.33333,-14.33333c0,-7.90483 6.4285,-14.33333 14.33333,-14.33333h89.58333c1.978,0 3.58333,1.60533 3.58333,3.58333c0,1.978 -1.60533,3.58333 -3.58333,3.58333h-89.58333c-3.95242,0 -7.16667,3.21425 -7.16667,7.16667c0,3.95242 3.21425,7.16667 7.16667,7.16667h100.33333c1.978,0 3.58333,1.60533 3.58333,3.58333c0,1.978 -1.60533,3.58333 -3.58333,3.58333z" fill="url(#color-2_bpb1NWfrmmHv_gr2)"></path><path d="M14.33333,28.66667c0,3.956 -3.21067,7.16667 -7.16667,7.16667c-3.956,0 -7.16667,-3.21067 -7.16667,-7.16667c0,-3.956 3.21067,-7.16667 7.16667,-7.16667c3.956,0 7.16667,3.21067 7.16667,7.16667z" fill="url(#color-3_bpb1NWfrmmHv_gr3)"></path><path d="M34.7225,112.4235c0.645,3.38267 3.60125,5.8265 7.04125,5.8265h102.66608c3.5045,0 6.493,-2.53342 7.06992,-5.98775l7.39242,-44.35808l-134.62225,-10.35583z" fill="url(#color-4_bpb1NWfrmmHv_gr4)"></path><path d="M157.34775,53.449l-135.84775,-10.449l2.76992,14.54833l134.61867,10.35583l1.71642,-10.29133c0.34758,-2.07475 -1.161,-4.00258 -3.25725,-4.16383z" fill="url(#color-5_bpb1NWfrmmHv_gr5)"></path><path d="M82.41667,47.687v27.563h-9.48867c-4.78733,0 -7.18817,5.79067 -3.80192,9.17692l18.97375,18.97375c2.79858,2.79858 7.33508,2.79858 10.13367,0l18.97375,-18.97375c3.38625,-3.38625 0.989,-9.17692 -3.80192,-9.17692h-9.48867v-25.91108z" fill="#000000" opacity="0.05"></path><path d="M84.20833,47.82317v29.2185h-10.82525c-3.36117,0 -5.04533,4.0635 -2.66958,6.44283l18.37892,18.37892c2.24675,2.24675 5.891,2.24675 8.13775,0l18.37892,-18.37892c2.37575,-2.37575 0.69517,-6.44283 -2.66958,-6.44283h-10.8145v-27.83892z" fill="#000000" opacity="0.07"></path><path d="M112.49158,78.83333h-12.15825v-46.58333c0,-1.978 -1.60533,-3.58333 -3.58333,-3.58333h-7.16667c-1.978,0 -3.58333,1.60533 -3.58333,3.58333v46.58333h-12.15825c-1.935,0 -2.9025,2.33992 -1.53367,3.70517l17.78767,17.78767c1.69492,1.69492 4.44692,1.69492 6.14183,0l17.78767,-17.78767c1.36883,-1.36525 0.40133,-3.70517 -1.53367,-3.70517z" fill="url(#color-6_bpb1NWfrmmHv_gr6)"></path></g></g></svg>