<svg xmlns="http://www.w3.org/2000/svg" x="0px" y="0px"
width="64" height="64"
viewBox="0 0 172 172"
style=" fill:#000000;"><g fill="none" fill-rule="nonzero" stroke="none" stroke-width="1" stroke-linecap="butt" stroke-linejoin="miter" stroke-miterlimit="10" stroke-dasharray="" stroke-dashoffset="0" font-family="none" font-weight="none" font-size="none" text-anchor="none" style="mix-blend-mode: normal"><path d="M0,172v-172h172v172z" fill="none"></path><g><path d="M133.03125,1.075c-20.425,0 -36.95312,16.39375 -37.625,37.49062c-0.5375,19.48438 18.14063,45.15 29.29375,58.5875c2.01563,2.41875 5.10625,3.89687 8.33125,3.89687c3.225,0 6.18125,-1.47812 8.33125,-3.89687c11.15312,-13.57188 29.96562,-39.10313 29.29375,-58.5875c-0.67187,-21.09687 -17.2,-37.49062 -37.625,-37.49062z" fill="#3498db"></path><path d="M133.03125,25.2625c-7.42133,0 -13.4375,6.01617 -13.4375,13.4375c0,7.42133 6.01617,13.4375 13.4375,13.4375c7.42133,0 13.4375,-6.01617 13.4375,-13.4375c0,-7.42133 -6.01617,-13.4375 -13.4375,-13.4375z" fill="#ffffff"></path><path d="M25.53125,107.36563c-13.16875,0 -23.78437,10.61563 -24.1875,24.05313c-0.40313,12.22812 11.15313,27.95 18.00625,36.28125c1.47812,1.88125 3.7625,2.95625 6.18125,2.95625c2.41875,0 4.70313,-1.075 6.18125,-2.95625c6.85313,-8.33125 18.40937,-24.05313 18.00625,-36.28125c-0.40312,-13.4375 -11.01875,-24.05313 -24.1875,-24.05313z" fill="#3498db"></path><path d="M25.53125,123.49063c-4.4528,0 -8.0625,3.6097 -8.0625,8.0625c0,4.4528 3.6097,8.0625 8.0625,8.0625c4.4528,0 8.0625,-3.6097 8.0625,-8.0625c0,-4.4528 -3.6097,-8.0625 -8.0625,-8.0625z" fill="#ffffff"></path><g fill="#333333"><path d="M103.2,170.65625h-54.825c-2.28438,0 -4.03125,-1.74687 -4.03125,-4.03125c0,-2.28438 1.74687,-4.03125 4.03125,-4.03125h54.825c1.6125,0 2.95625,-0.80625 3.62812,-2.28438c0.67188,-1.47813 0.5375,-2.95625 -0.40313,-4.3l-33.72812,-43.80625c-2.82188,-3.62812 -3.35937,-8.6 -1.20938,-12.76562c2.01563,-4.16562 6.18125,-6.71875 10.88438,-6.71875h23.78437c2.28437,0 4.03125,1.74688 4.03125,4.03125c0,2.28437 -1.74688,4.03125 -4.03125,4.03125h-23.91875c-1.6125,0 -2.95625,0.80625 -3.62812,2.28437c-0.67187,1.47813 -0.5375,2.95625 0.40313,4.3l33.72813,43.94063c2.82187,3.62813 3.35938,8.6 1.20938,12.76563c-1.88125,4.03125 -6.04688,6.58437 -10.75,6.58437z"></path></g></g></g></svg>