<svg xmlns="http://www.w3.org/2000/svg" x="0px" y="0px"
width="48" height="48"
viewBox="0 0 172 172"
style=" fill:#000000;"><defs><linearGradient x1="102.22892" y1="55.44133" x2="120.4" y2="37.26667" gradientUnits="userSpaceOnUse" id="color-1_Ra7NUPW9yLxq_gr1"><stop offset="0" stop-color="#3079d6"></stop><stop offset="1" stop-color="#297cd2"></stop></linearGradient><linearGradient x1="126.84283" y1="114.97483" x2="157.15425" y2="161.65492" gradientUnits="userSpaceOnUse" id="color-2_Ra7NUPW9yLxq_gr2"><stop offset="0" stop-color="#f44f5a"></stop><stop offset="0.443" stop-color="#ee3d4a"></stop><stop offset="1" stop-color="#e52030"></stop></linearGradient></defs><g fill="none" fill-rule="nonzero" stroke="none" stroke-width="1" stroke-linecap="butt" stroke-linejoin="miter" stroke-miterlimit="10" stroke-dasharray="" stroke-dashoffset="0" font-family="none" font-weight="none" font-size="none" text-anchor="none" style="mix-blend-mode: normal"><path d="M0,172v-172h172v172z" fill="none"></path><g><path d="M139.75,57.33333v89.58333c0,3.95958 -3.20708,7.16667 -7.16667,7.16667h-93.16667c-3.95958,0 -7.16667,-3.20708 -7.16667,-7.16667v-121.83333c0,-3.95958 3.20708,-7.16667 7.16667,-7.16667h60.91667z" fill="#3498db"></path><path d="M100.33333,17.91667v32.25c0,3.95958 3.20708,7.16667 7.16667,7.16667h32.25z" fill="url(#color-1_Ra7NUPW9yLxq_gr1)"></path><path d="M100.33333,86h-25.08333c-1.978,0 -3.58333,1.60533 -3.58333,3.58333v0c0,1.978 1.60533,3.58333 3.58333,3.58333h25.08333c1.978,0 3.58333,-1.60533 3.58333,-3.58333v0c0,-1.978 -1.60533,-3.58333 -3.58333,-3.58333z" fill="#ffffff"></path><path d="M111.08333,71.66667h-35.83333c-1.978,0 -3.58333,1.60533 -3.58333,3.58333v0c0,1.978 1.60533,3.58333 3.58333,3.58333h35.83333c1.978,0 3.58333,-1.60533 3.58333,-3.58333v0c0,-1.978 -1.60533,-3.58333 -3.58333,-3.58333z" fill="#ffffff"></path><circle cx="17" cy="21" transform="scale(3.58333,3.58333)" r="1" fill="#ffffff"></circle><circle cx="17" cy="25" transform="scale(3.58333,3.58333)" r="1" fill="#ffffff"></circle><path d="M111.08333,100.33333h-35.83333c-1.978,0 -3.58333,1.60533 -3.58333,3.58333v0c0,1.978 1.60533,3.58333 3.58333,3.58333h35.83333c1.978,0 3.58333,-1.60533 3.58333,-3.58333v0c0,-1.978 -1.60533,-3.58333 -3.58333,-3.58333z" fill="#ffffff"></path><circle cx="17" cy="29" transform="scale(3.58333,3.58333)" r="1" fill="#ffffff"></circle><path d="M100.33333,114.66667h-25.08333c-1.978,0 -3.58333,1.60533 -3.58333,3.58333v0c0,1.978 1.60533,3.58333 3.58333,3.58333h25.08333c1.978,0 3.58333,-1.60533 3.58333,-3.58333v0c0,-1.978 -1.60533,-3.58333 -3.58333,-3.58333z" fill="#ffffff"></path><circle cx="17" cy="33" transform="scale(3.58333,3.58333)" r="1" fill="#ffffff"></circle><path d="M139.75,126.3125c0,0 7.22042,-8.0625 16.125,-8.0625c8.90458,0 16.125,7.31717 16.125,16.125c0,15.1575 -23.75033,32.46142 -30.487,37.066c-1.06783,0.731 -2.45458,0.731 -3.52242,0c-6.74025,-4.60458 -30.49058,-21.9085 -30.49058,-37.066c0,-8.80783 7.22042,-16.125 16.125,-16.125c8.90458,0 16.125,8.0625 16.125,8.0625z" fill="url(#color-2_Ra7NUPW9yLxq_gr2)"></path></g></g></svg>